<?xml version="1.0" standalone="no"?>
<!DOCTYPE svg PUBLIC "-//W3C//DTD SVG 20010904//EN"
 "http://www.w3.org/TR/2001/REC-SVG-20010904/DTD/svg10.dtd">
<svg version="1.0" xmlns="http://www.w3.org/2000/svg"
 width="323.000000pt" height="323.000000pt" viewBox="0 0 323.000000 323.000000"
 preserveAspectRatio="xMidYMid meet">
<metadata>
Created by potrace 1.11, written by Peter Selinger 2001-2013
</metadata>
<g transform="translate(0.000000,323.000000) scale(0.100000,-0.100000)"
fill="#000000" stroke="none">
<path d="M236 2773 c2 -247 7 -608 9 -803 13 -1020 16 -1294 19 -1608 2 -189
6 -346 9 -349 3 -3 30 11 60 31 30 20 59 36 65 36 6 0 15 6 19 14 5 8 17 18
28 23 11 4 78 44 148 88 439 274 538 335 547 335 5 0 13 6 17 13 4 6 22 19 38
27 17 8 32 18 35 21 3 3 19 13 37 22 17 9 37 22 45 29 7 7 24 19 38 26 29 15
68 39 307 187 97 60 182 116 190 123 7 7 13 11 13 8 0 -5 191 112 200 123 3 4
17 12 33 18 15 7 27 17 27 23 0 6 4 9 9 6 5 -3 27 8 50 24 22 17 43 30 46 30
3 0 37 21 77 47 40 27 80 51 88 55 8 4 47 27 85 52 39 25 90 57 115 72 113 67
220 139 220 147 0 4 4 6 9 2 5 -3 46 19 91 49 81 54 82 54 58 69 -12 9 -30 17
-38 19 -8 2 -17 5 -20 9 -13 14 -80 50 -80 42 0 -4 -4 -3 -8 3 -4 6 -38 28
-77 49 -38 20 -74 41 -80 45 -5 4 -40 24 -77 43 -96 52 -111 60 -130 75 -9 8
-22 11 -27 7 -6 -3 -11 -2 -11 4 0 6 -17 19 -37 29 -71 36 -158 86 -163 93 -3
4 -14 9 -25 11 -11 1 -29 11 -39 21 -11 9 -25 17 -30 17 -6 0 -22 9 -36 20
-14 11 -33 20 -42 20 -10 0 -18 4 -18 8 0 7 -40 32 -60 37 -3 1 -23 12 -45 26
-22 13 -42 24 -45 24 -3 0 -12 5 -20 12 -8 7 -19 13 -24 12 -5 0 -12 4 -16 11
-4 6 -16 12 -28 13 -11 0 -18 5 -16 9 5 7 -10 12 -28 9 -5 0 -8 3 -8 8 0 5
-18 18 -40 29 -32 16 -40 17 -40 5 0 -8 -5 -11 -10 -8 -6 3 -13 -1 -16 -9 -3
-9 -13 -16 -21 -16 -8 0 -11 -4 -8 -10 3 -5 1 -10 -5 -10 -5 0 -23 -12 -39
-27 -16 -16 -44 -39 -61 -53 -18 -14 -45 -37 -60 -52 -15 -15 -30 -24 -34 -21
-3 4 -6 -1 -6 -11 0 -9 -4 -15 -8 -12 -5 3 -15 -4 -22 -15 -8 -10 -18 -19 -23
-19 -14 0 -37 -27 -29 -35 4 -4 2 -6 -3 -4 -16 4 -45 -12 -39 -22 3 -5 1 -9
-4 -9 -5 0 -23 -12 -40 -27 -24 -21 -29 -32 -22 -43 5 -8 10 -11 10 -7 0 4 10
-1 22 -12 11 -11 26 -17 32 -14 6 3 8 3 4 -2 -8 -9 31 -42 45 -37 4 1 7 -2 7
-6 0 -5 30 -30 68 -57 37 -27 72 -53 77 -57 6 -5 28 -22 50 -38 22 -16 46 -34
53 -40 6 -6 12 -9 12 -6 0 2 14 -9 31 -24 16 -16 39 -32 50 -35 10 -4 19 -11
19 -16 0 -6 4 -8 8 -5 5 3 9 -1 9 -9 0 -8 -6 -15 -12 -15 -6 0 -38 -19 -71
-41 -32 -23 -60 -41 -62 -40 -4 2 -57 -33 -64 -44 -4 -5 -8 -7 -8 -3 0 6 -82
-43 -115 -69 -6 -4 -32 -19 -58 -33 -26 -13 -47 -28 -47 -32 0 -5 -7 -8 -15
-8 -9 0 -18 -7 -21 -15 -4 -8 -10 -13 -14 -10 -5 3 -15 -1 -22 -9 -8 -7 -24
-17 -36 -20 -12 -4 -22 -12 -22 -17 0 -5 -7 -9 -15 -9 -8 0 -15 -3 -15 -8 0
-4 -15 -14 -32 -21 -18 -8 -62 -34 -97 -58 -35 -24 -65 -43 -66 -41 -5 4 -21
1105 -24 1550 l-1 168 -37 19 c-21 10 -42 19 -47 19 -5 0 -12 4 -15 10 -3 5
-53 33 -111 63 -58 30 -107 56 -110 59 -14 14 -70 40 -70 33 0 -4 -5 0 -11 10
-6 9 -14 15 -20 12 -5 -4 -9 -1 -9 6 0 7 -3 9 -7 6 -3 -4 -12 -2 -19 4 -18 15
-183 99 -194 99 -5 0 -7 -190 -4 -447z"/>
</g>
</svg>
